<svg width="118" height="103" viewBox="0 0 118 103" fill="none" xmlns="http://www.w3.org/2000/svg">
<path d="M107.544 103H10.4601C4.68266 103 0 98.3875 0 92.6967V10.3033C0 4.61249 4.68266 0 10.4601 0H29.3669C33.7421 0 38.0161 1.27037 41.6603 3.65233L47.9663 7.77365C50.5157 9.43917 53.5075 10.3292 56.5631 10.3292H107.54C113.317 10.3292 118 14.9417 118 20.6325V92.6967C118 98.3875 113.317 103 107.54 103H107.544Z" fill="#5EA0DD"/>
<path d="M107.02 19H10.9805C4.91613 19 0 23.9443 0 30.0434V91.9566C0 98.0557 4.91613 103 10.9805 103H107.02C113.084 103 118 98.0557 118 91.9566V30.0434C118 23.9443 113.084 19 107.02 19Z" fill="#74B9F3"/>
</svg>
